# xmcd
#
# Track frame offsets:
#	150
#	17154
#	31613
#	46158
#	62265
#	78580
#	91946
#	107825
#	119771
#	136977
#	153452
#	168126
#	184179
#	199127
#	215759
#	233469
#	248747
#	265789
#	282685
#	298952
#
# Disc length: 4224 seconds
#
# Revision: 1
# Processed by: cddbd v1.4PL0 Copyright (c) Steve Scherf et al.
# Submitted via: audiograbber 1.82.01
#
DISCID=1c107e14
DTITLE=[Gagarin] - Åâðî õèò Òîï 20
DYEAR=2003
DGENRE=
TTITLE0=Girls Aloud - Life Got Cold
TTITLE1=Erika - I Don't Know
TTITLE2=Panjabi MC - Jogi
TTITLE3=Tim Deluxe - Less Talk More Action!
TTITLE4=Bosson - You Open My Eyes
TTITLE5=Alkazar - Not A Sinner Not A Saint
TTITLE6=Junior Jack - Ó Samba
TTITLE7=Bhangra Knights vs. Husan - Husan (Radio Edit)
TTITLE8=New Tone - Waiting For Your Love
TTITLE9=Milky - Be My World
TTITLE10=Tomy Or Zox - You Are My Desiêe
TTITLE11=Bob Sinklar - The Beat Goes On
TTITLE12=Floorfilla - Anthem #6 (Cassez La Boite)
TTITLE13=Milk and Sugar with Damien J. Carter - I Got This Feeling
TTITLE14=Friends feat. Shary - Musette
TTITLE15=Tina Bride - Party@
TTITLE16=James Douglas - Out Of Your Minde
TTITLE17=Moon Shine feat. Nell - Set Me Free (RMX)
TTITLE18=Cafe' Chantal - Cafe' Chantal
TTITLE19=Sylva - Dangerous
EXTD=
EXTT0=
EXTT1=
EXTT2=
EXTT3=
EXTT4=
EXTT5=
EXTT6=
EXTT7=
EXTT8=
EXTT9=
EXTT10=
EXTT11=
EXTT12=
EXTT13=
EXTT14=
EXTT15=
EXTT16=
EXTT17=
EXTT18=
EXTT19=
PLAYORDER=
